<?xml version="1.0" standalone="no"?>
<!DOCTYPE svg PUBLIC "-//W3C//DTD SVG 20010904//EN"
 "http://www.w3.org/TR/2001/REC-SVG-20010904/DTD/svg10.dtd">
<svg version="1.0" xmlns="http://www.w3.org/2000/svg"
 width="260.000000pt" height="260.000000pt" viewBox="0 0 260.000000 260.000000"
 preserveAspectRatio="xMidYMid meet">
<metadata>
Created by potrace 1.14, written by Peter Selinger 2001-2017
</metadata>
<g transform="translate(0.000000,260.000000) scale(0.100000,-0.100000)"
fill="#000000" stroke="none">
<path d="M435 2589 c-205 -29 -394 -223 -425 -434 -13 -92 -13 -1616 0 -1710
30 -215 219 -404 435 -435 92 -13 1616 -13 1710 0 215 30 404 219 435 435 13
94 13 1616 0 1710 -31 216 -220 405 -435 435 -86 12 -1635 11 -1720 -1z m1080
-278 c207 -43 367 -130 520 -285 154 -155 244 -319 286 -520 21 -103 25 -287
8 -382 -79 -444 -427 -787 -869 -855 -109 -17 -316 -6 -415 21 -191 52 -327
131 -471 274 -207 207 -304 441 -304 731 0 290 98 524 304 731 153 153 313
241 516 285 117 24 307 25 425 0z"/>
<path d="M1172 2169 c-91 -14 -219 -60 -309 -110 -107 -60 -262 -215 -322
-322 -293 -520 -15 -1161 566 -1304 93 -23 303 -23 396 0 322 80 572 324 659
645 27 102 30 314 5 415 -80 323 -324 573 -642 657 -93 24 -261 33 -353 19z
m273 -264 c59 -15 182 -71 218 -99 18 -14 17 -17 -23 -70 l-41 -55 -62 34
c-197 108 -429 75 -581 -84 -184 -193 -182 -483 4 -671 102 -103 219 -146 376
-138 80 4 103 10 166 40 86 42 153 98 198 168 21 32 38 49 46 46 18 -7 103
-70 103 -76 1 -3 -22 -35 -49 -72 -220 -298 -648 -337 -928 -83 -60 53 -129
160 -159 245 -35 99 -43 255 -19 349 74 290 313 479 606 480 47 1 113 -6 145
-14z m369 -253 c77 -111 47 -198 -104 -302 -157 -107 -324 -161 -510 -163
-108 -2 -239 14 -269 32 -9 6 -13 32 -13 80 0 40 2 74 4 76 1 2 37 -6 78 -17
104 -27 267 -27 373 1 98 26 187 68 266 126 63 46 76 76 49 104 -11 10 -3 21
37 56 28 24 53 44 56 45 4 0 18 -17 33 -38z"/>
</g>
</svg>
